<?xml version="1.0" standalone="no"?>
<!DOCTYPE svg PUBLIC "-//W3C//DTD SVG 20010904//EN"
 "http://www.w3.org/TR/2001/REC-SVG-20010904/DTD/svg10.dtd">
<svg version="1.0" xmlns="http://www.w3.org/2000/svg"
 width="512.000000pt" height="512.000000pt" viewBox="0 0 512.000000 512.000000"
 preserveAspectRatio="xMidYMid meet">
<metadata>
Created by potrace 1.14, written by Peter Selinger 2001-2017
</metadata>
<g transform="translate(0.000000,512.000000) scale(0.100000,-0.100000)"
fill="#000000" stroke="none">
<path d="M0 2560 l0 -2560 2560 0 2560 0 0 2560 0 2560 -2560 0 -2560 0 0
-2560z m2555 1745 l25 -24 0 -354 c0 -195 3 -375 6 -401 11 -77 9 -77 412 -79
302 -2 352 -4 385 -19 l37 -17 0 -219 c0 -127 -4 -232 -10 -249 -18 -49 -49
-53 -418 -53 -291 0 -336 -2 -367 -17 -20 -9 -38 -27 -41 -39 -3 -12 -4 -262
-2 -555 l4 -534 31 -100 c29 -90 36 -104 81 -145 67 -63 187 -100 317 -100
110 0 291 42 381 89 126 64 134 51 134 -219 0 -179 -3 -210 -19 -246 -15 -33
-27 -44 -58 -54 -21 -7 -76 -29 -123 -50 -59 -27 -116 -43 -185 -54 -55 -9
-125 -23 -155 -32 -81 -23 -356 -30 -440 -11 -36 8 -117 26 -181 40 -241 52
-446 205 -552 412 -30 58 -39 88 -47 165 -5 53 -10 387 -10 751 l0 656 -22 20
c-21 19 -37 22 -174 25 -167 3 -177 7 -194 67 -16 57 -13 356 4 389 22 42 56
68 125 96 36 14 72 32 80 40 9 7 34 23 57 34 22 11 79 58 125 104 160 159 264
356 300 573 12 74 31 120 51 128 7 3 104 6 216 6 203 1 203 1 227 -24z"/>
</g>
</svg>
